<svg width="390" height="844" viewBox="0 0 390 844" fill="none" xmlns="http://www.w3.org/2000/svg">
<g clip-path="url(#clip0_401_810)">
<rect width="390" height="844" fill="white"/>
<path d="M387 218C400 218 395.5 218 395.5 218" stroke="white" stroke-width="3"/>
<path d="M309.045 58.4536C313.293 58.4536 316.78 54.96 316.78 50.7119C316.78 46.4712 313.286 42.9775 309.045 42.9775C304.797 42.9775 301.311 46.4712 301.311 50.7119C301.311 54.96 304.805 58.4536 309.045 58.4536ZM309.045 56.5273C305.83 56.5273 303.245 53.9346 303.245 50.7119C303.245 47.4966 305.823 44.9038 309.045 44.9038C312.261 44.9038 314.854 47.4966 314.854 50.7119C314.854 53.9346 312.268 56.5273 309.045 56.5273Z" fill="black"/>
<path d="M-2 67.5C27.1667 64.1667 88.1 64 98.5 90C111.5 122.5 100 205 145 224.5C190 244 199.5 82 244.5 115.5C289.5 149 320.5 242.5 387.5 224.5C454.5 206.5 492.5 206.5 517.5 224.5C542.5 242.5 583 277 567.5 340C552 403 662 434 669.5 387C677 340 622.5 301 646 277.5C669.5 254 806 293 841.5 224.5C877 156 828 115.5 794.5 115.5C761 115.5 729 138 723.5 169C718 200 703.5 286.5 794.5 351C867.3 402.6 936.5 365.167 962 340C982.5 319.167 1035.2 277.5 1082 277.5C1128.8 277.5 1152.83 319.167 1169 340C1185.17 360.833 1208.8 437 1258 441C1307.2 445 1330.5 354.667 1336.5 323C1364.5 224.5 1391.9 49.5 1559.5 67.5" stroke="#F2AA4C" stroke-width="3"/>
<path d="M239.756 665.454C244.004 665.454 247.491 661.96 247.491 657.712C247.491 653.471 243.997 649.978 239.756 649.978C235.508 649.978 232.022 653.471 232.022 657.712C232.022 661.96 235.516 665.454 239.756 665.454ZM239.756 663.527C236.541 663.527 233.956 660.935 233.956 657.712C233.956 654.497 236.534 651.904 239.756 651.904C242.972 651.904 245.564 654.497 245.564 657.712C245.564 660.935 242.979 663.527 239.756 663.527Z" fill="black"/>
<rect x="218.371" y="688.884" width="18" height="18" transform="rotate(-30.8293 218.371 688.884)" stroke="#F2AA4C" stroke-width="2"/>
<rect x="330.529" y="80.0754" width="20" height="20" transform="rotate(34.9374 330.529 80.0754)" fill="#F2AA4C"/>
<path d="M333.473 540.926C340.27 540.926 345.848 535.336 345.848 528.539C345.848 521.754 340.258 516.164 333.473 516.164C326.676 516.164 321.098 521.754 321.098 528.539C321.098 535.336 326.688 540.926 333.473 540.926Z" fill="#101820"/>
<path d="M78.2363 182.963C81.6348 182.963 84.4238 180.168 84.4238 176.77C84.4238 173.377 81.6289 170.582 78.2363 170.582C74.8379 170.582 72.0488 173.377 72.0488 176.77C72.0488 180.168 74.8438 182.963 78.2363 182.963Z" fill="#101820"/>
<path d="M77.0303 561.636C79.8623 561.636 82.1865 559.307 82.1865 556.475C82.1865 553.647 79.8574 551.318 77.0303 551.318C74.1982 551.318 71.874 553.647 71.874 556.475C71.874 559.307 74.2031 561.636 77.0303 561.636Z" fill="#101820"/>
<path d="M317.236 557.963C320.635 557.963 323.424 555.168 323.424 551.77C323.424 548.377 320.629 545.582 317.236 545.582C313.838 545.582 311.049 548.377 311.049 551.77C311.049 555.168 313.844 557.963 317.236 557.963Z" fill="#F2AA4C"/>
<path d="M42.2363 780.963C45.6348 780.963 48.4238 778.168 48.4238 774.77C48.4238 771.377 45.6289 768.582 42.2363 768.582C38.8379 768.582 36.0488 771.377 36.0488 774.77C36.0488 778.168 38.8438 780.963 42.2363 780.963Z" fill="#F2AA4C"/>
<path d="M40.9187 619C36.4523 612.889 30.1994 598.352 40.9187 589.089C51.6381 579.826 62.6123 585.229 66.7595 589.089C77.2875 596.808 97.7691 607.614 95.4721 589.089C93.1751 570.563 101.534 569.791 106 571.721" stroke="#F2AA4C" stroke-width="2"/>
<path d="M334.522 765.159C333.735 765.39 333.285 766.215 333.516 767.002L335.044 772.202L329.844 773.729C329.066 773.958 328.604 774.776 328.835 775.563C329.066 776.35 329.9 776.797 330.678 776.569L335.878 775.041L337.405 780.241C337.634 781.019 338.458 781.469 339.245 781.238C340.023 781.009 340.473 780.185 340.244 779.407L338.717 774.207L343.917 772.679C344.695 772.451 345.154 771.624 344.923 770.837C344.692 770.05 343.861 769.612 343.083 769.84L337.883 771.368L336.355 766.168C336.124 765.381 335.3 764.931 334.522 765.159Z" fill="black"/>
<path d="M52.0454 760.454C56.2935 760.454 59.7798 756.96 59.7798 752.712C59.7798 748.471 56.2861 744.978 52.0454 744.978C47.7974 744.978 44.311 748.471 44.311 752.712C44.311 756.96 47.8047 760.454 52.0454 760.454ZM52.0454 758.527C48.8301 758.527 46.2446 755.935 46.2446 752.712C46.2446 749.497 48.8228 746.904 52.0454 746.904C55.2607 746.904 57.8535 749.497 57.8535 752.712C57.8535 755.935 55.2681 758.527 52.0454 758.527Z" fill="black"/>
<path d="M281.522 246.045C280.776 249.36 282.89 252.695 286.205 253.441C289.515 254.187 292.855 252.074 293.601 248.764C294.347 245.449 292.233 242.114 288.923 241.369C285.608 240.622 282.267 242.735 281.522 246.045Z" fill="#F2AA4C"/>
<path d="M299.376 260.119C298.442 264.263 301.085 268.432 305.229 269.365C309.367 270.296 313.542 267.655 314.474 263.518C315.407 259.374 312.764 255.205 308.627 254.274C304.483 253.341 300.307 255.982 299.376 260.119ZM301.255 260.542C301.961 257.405 305.058 255.452 308.202 256.16C311.339 256.866 313.302 259.951 312.594 263.095C311.888 266.232 308.789 268.192 305.652 267.486C302.509 266.778 300.547 263.686 301.255 260.542Z" fill="black"/>
<path d="M205.386 69.167C205.055 69.9173 205.393 70.7931 206.144 71.1249L211.101 73.3165L208.909 78.2736C208.581 79.0149 208.907 79.8957 209.657 80.2274C210.408 80.5592 211.288 80.2114 211.615 79.4701L213.807 74.5131L218.764 76.7047C219.505 77.0325 220.381 76.6937 220.713 75.9434C221.041 75.2021 220.702 74.3262 219.961 73.9985L215.003 71.8068L217.195 66.8498C217.523 66.1085 217.188 65.2236 216.438 64.8919C215.688 64.5602 214.817 64.9119 214.489 65.6532L212.297 70.6103L207.34 68.4186C206.59 68.0869 205.714 68.4257 205.386 69.167Z" fill="black"/>
<path d="M32.846 141.56C32.3153 142.761 32.8574 144.162 34.0578 144.693L41.989 148.2L38.4824 156.131C37.9579 157.317 38.4794 158.726 39.6798 159.257C40.8802 159.788 42.288 159.231 42.8124 158.045L46.3191 150.114L54.2503 153.621C55.4364 154.145 56.8378 153.603 57.3686 152.403C57.893 151.217 57.3509 149.815 56.1648 149.291L48.2335 145.784L51.7402 137.853C52.2646 136.667 51.7288 135.251 50.5284 134.72C49.328 134.19 47.9346 134.752 47.4102 135.938L43.9035 143.87L35.9723 140.363C34.7719 139.832 33.3705 140.374 32.846 141.56Z" fill="#F2AA4C"/>
</g>
<defs>
<clipPath id="clip0_401_810">
<rect width="390" height="844" fill="white"/>
</clipPath>
</defs>
</svg>
