<svg width="390" height="844" viewBox="0 0 390 844" fill="none" xmlns="http://www.w3.org/2000/svg">
<g clip-path="url(#clip0_401_856)">
<rect width="390" height="844" fill="white"/>
<path d="M-782 67.5C-752.833 64.1667 -691.9 64 -681.5 90C-668.5 122.5 -680 205 -635 224.5C-590 244 -580.5 82 -535.5 115.5C-490.5 149 -459.5 242.5 -392.5 224.5C-325.5 206.5 -287.5 206.5 -262.5 224.5C-237.5 242.5 -197 277 -212.5 340C-228 403 -118 434 -110.5 387C-103 340 -157.5 301 -134 277.5C-110.5 254 26 293 61.5 224.5C97 156 48 115.5 14.5 115.5C-19 115.5 -51 138 -56.5 169C-62 200 -76.5 286.5 14.5 351C87.3 402.6 156.5 365.167 182 340C202.5 319.167 255.2 277.5 302 277.5C348.8 277.5 372.833 319.167 389 340C405.167 360.833 428.8 437 478 441C527.2 445 550.5 354.667 556.5 323C584.5 224.5 611.9 49.5 779.5 67.5" stroke="#F2AA4C" stroke-width="3"/>
</g>
<defs>
<clipPath id="clip0_401_856">
<rect width="390" height="844" fill="white"/>
</clipPath>
</defs>
</svg>
