<svg width="390" height="844" viewBox="0 0 390 844" fill="none" xmlns="http://www.w3.org/2000/svg">
<g clip-path="url(#clip0_401_833)">
<rect width="390" height="844" fill="white"/>
<path d="M-392 67.5C-362.833 64.1667 -301.9 64 -291.5 90C-278.5 122.5 -290 205 -245 224.5C-200 244 -190.5 82 -145.5 115.5C-100.5 149 -69.5 242.5 -2.5 224.5C64.5 206.5 102.5 206.5 127.5 224.5C152.5 242.5 193 277 177.5 340C162 403 272 434 279.5 387C287 340 232.5 301 256 277.5C279.5 254 416 293 451.5 224.5C487 156 438 115.5 404.5 115.5C371 115.5 339 138 333.5 169C328 200 313.5 286.5 404.5 351C477.3 402.6 546.5 365.167 572 340C592.5 319.167 645.2 277.5 692 277.5C738.8 277.5 762.833 319.167 779 340C795.167 360.833 818.8 437 868 441C917.2 445 940.5 354.667 946.5 323C974.5 224.5 1001.9 49.5 1169.5 67.5" stroke="#F2AA4C" stroke-width="3"/>
</g>
<defs>
<clipPath id="clip0_401_833">
<rect width="390" height="844" fill="white"/>
</clipPath>
</defs>
</svg>
