<svg width="390" height="844" viewBox="0 0 390 844" fill="none" xmlns="http://www.w3.org/2000/svg">
<g clip-path="url(#clip0_401_879)">
<rect width="390" height="844" fill="white"/>
<path d="M-1172 67.5C-1142.83 64.1667 -1081.9 64 -1071.5 90C-1058.5 122.5 -1070 205 -1025 224.5C-980 244 -970.5 82 -925.5 115.5C-880.5 149 -849.5 242.5 -782.5 224.5C-715.5 206.5 -677.5 206.5 -652.5 224.5C-627.5 242.5 -587 277 -602.5 340C-618 403 -508 434 -500.5 387C-493 340 -547.5 301 -524 277.5C-500.5 254 -364 293 -328.5 224.5C-293 156 -342 115.5 -375.5 115.5C-409 115.5 -441 138 -446.5 169C-452 200 -466.5 286.5 -375.5 351C-302.7 402.6 -233.5 365.167 -208 340C-187.5 319.167 -134.8 277.5 -88 277.5C-41.2 277.5 -17.1667 319.167 -1 340C15.1667 360.833 38.8 437 88 441C137.2 445 160.5 354.667 166.5 323C194.5 224.5 221.9 49.5 389.5 67.5" stroke="#F2AA4C" stroke-width="3"/>
</g>
<defs>
<clipPath id="clip0_401_879">
<rect width="390" height="844" fill="white"/>
</clipPath>
</defs>
</svg>
